<svg width="194" height="99" viewBox="0 0 194 99" fill="none" xmlns="http://www.w3.org/2000/svg">
<path d="M194 1.12488H16.1927C8.09375 1.12488 1.53125 7.68738 1.53125 15.7811V83.3957C1.53125 91.4947 8.09375 98.0572 16.1927 98.0572H194" stroke="white" stroke-width="1.33333" stroke-miterlimit="10"/>
<path d="M83.735 33.7395H43.4329C40.2454 33.7395 37.6621 36.3228 37.6621 39.5103V59.6718C37.6621 62.8541 40.2454 65.4374 43.4329 65.4374H83.735C86.9225 65.4374 89.5007 62.8541 89.5007 59.6718V39.5103C89.5007 36.3228 86.9225 33.7395 83.735 33.7395Z" stroke="white" stroke-width="1.33333" stroke-miterlimit="10"/>
<path d="M39.5059 35.2863L60.8757 53.979C62.5475 55.4322 64.6204 55.4322 66.2923 53.979L87.6621 35.2863M125.355 32.9999V66.1822" stroke="white" stroke-width="1.33333" stroke-miterlimit="10"/>
</svg>
