<svg width="666" height="90" viewBox="0 0 666 90" fill="none" xmlns="http://www.w3.org/2000/svg">
<path d="M524.714 6.08838C503.37 6.08838 486.006 23.453 486.006 44.7967C486.006 66.1405 503.37 83.5051 524.714 83.5051C546.058 83.5051 563.423 66.1405 563.423 44.7967C563.423 23.453 546.058 6.08838 524.714 6.08838ZM524.714 88.2551C500.751 88.2551 481.256 68.7603 481.256 44.7967C481.256 20.8332 500.751 1.33838 524.714 1.33838C548.678 1.33838 568.173 20.8332 568.173 44.7967C568.173 68.7603 548.678 88.2551 524.714 88.2551Z" fill="#AEAABA"/>
<path d="M512.062 37.6874H504.474V42.6822H511.615V46.1926H504.474V51.9062H512.359V55.4166H500.193V34.177H512.062V37.6874ZM520.958 34.177L523.995 49.1718H524.052L527.115 34.177H533.453V55.4166H529.526V38.4583H529.469L525.688 55.4166H522.354L518.578 38.4583H518.521V55.4166H514.589V34.177H520.958ZM545.042 37.9687C544.672 37.2655 544.005 36.9114 543.031 36.9114C542.495 36.9114 542.052 37.0572 541.708 37.3437C541.359 37.6301 541.089 38.0989 540.891 38.7395C540.693 39.3853 540.552 40.2291 540.474 41.2708C540.396 42.3124 540.354 43.5885 540.354 45.0937C540.354 46.6978 540.411 47.9999 540.521 48.9895C540.625 49.9843 540.797 50.7499 541.026 51.2968C541.255 51.8437 541.542 52.2083 541.885 52.3958C542.234 52.5833 542.635 52.6822 543.094 52.6822C543.469 52.6822 543.823 52.6145 544.146 52.4895C544.474 52.3593 544.76 52.0989 544.995 51.7135C545.234 51.328 545.422 50.7812 545.562 50.078C545.703 49.3749 545.771 48.4478 545.771 47.2968H550.052C550.052 48.4478 549.964 49.5364 549.786 50.5676C549.609 51.5989 549.276 52.4999 548.792 53.276C548.302 54.052 547.62 54.6562 546.74 55.0885C545.854 55.526 544.708 55.7447 543.302 55.7447C541.693 55.7447 540.417 55.4895 539.464 54.9687C538.51 54.4583 537.781 53.7135 537.276 52.7395C536.771 51.7708 536.443 50.6093 536.297 49.2603C536.146 47.9114 536.073 46.4218 536.073 44.7968C536.073 43.1874 536.146 41.7083 536.297 40.3489C536.443 38.9895 536.771 37.8228 537.276 36.8541C537.781 35.8801 538.51 35.1249 539.464 34.578C540.417 34.0312 541.693 33.7551 543.302 33.7551C544.828 33.7551 546.031 34.0051 546.917 34.4999C547.797 34.9999 548.458 35.6301 548.896 36.3905C549.328 37.1562 549.604 37.9791 549.714 38.8593C549.823 39.7447 549.875 40.5728 549.875 41.3437H545.594C545.594 39.7968 545.406 38.6718 545.042 37.9687ZM256.62 28.7655H250V25.3645H266.938V28.7655H260.318V46.2395H256.62V28.7655Z" fill="#AEAABA"/>
<path d="M266.312 37.3801V25.3645H269.979V37.2343C269.979 41.1093 271.979 43.1666 275.26 43.1666C278.51 43.1666 280.51 41.2291 280.51 37.3801V25.3645H284.177V37.203C284.177 43.4374 280.656 46.5676 275.203 46.5676C269.771 46.5676 266.312 43.4374 266.312 37.3801Z" fill="#AEAABA"/>
<path d="M283.256 25.3645H287.313L293.605 41.4062L299.865 25.3645H303.834L295.183 46.3905H291.933L283.256 25.3645ZM264.126 70.0103V71.2083C264.126 72.8593 264.657 73.7603 265.923 73.7603C267.214 73.7603 267.631 72.6666 267.631 70.9999C267.631 68.7812 267.146 68.0103 265.027 66.3489C262.891 64.6666 261.771 63.6145 261.771 60.6718C261.771 58.0885 262.548 55.5364 265.949 55.5468C269.324 55.552 269.985 57.901 269.985 60.2187V61.2239H267.334V60.2916C267.334 58.7916 267.063 57.8541 265.896 57.8541C264.745 57.8541 264.443 58.8645 264.443 60.2864C264.443 61.8801 264.751 62.5728 266.537 63.8958C269.428 66.052 270.324 67.2864 270.324 70.6093C270.324 73.4218 269.412 76.0468 265.844 76.0468C262.36 76.0468 261.454 73.802 261.454 71.177V70.0103H264.126ZM274.167 55.8489V71.1405C274.167 72.677 274.688 73.6249 276.006 73.6249C277.355 73.6249 277.798 72.6405 277.798 71.1458V55.8489H280.48V71.078C280.48 74.1978 279.074 76.0468 275.954 76.0468C272.959 76.0468 271.495 74.4062 271.495 71.1041V55.8489H274.167ZM285.105 73.4791H286.183C288.365 73.4791 288.782 72.151 288.782 69.8593V61.4583C288.782 59.427 288.423 58.1562 286.178 58.1562H285.105V73.4791ZM282.433 55.8489H286.423C290.678 55.8489 291.506 58.2343 291.506 61.7083V69.4426C291.506 72.4947 291.006 75.7655 286.36 75.7655H282.433V55.8489ZM247.209 49.8593H306.329V51.4114H247.209V49.8593Z" fill="#AEAABA"/>
<path d="M260.756 83.4738H292.782L315.423 60.828V28.8071L292.782 6.1613H260.756L238.11 28.8071V60.828L260.756 83.4738ZM294.771 88.2759H258.766L233.308 62.8175V26.8175L258.766 1.354H294.771L320.23 26.8175V62.8175L294.771 88.2759ZM20.5527 43.729H16.0579L15.9434 35.4373L16.0579 27.505H20.5527V19.9894H0.787109V27.505H5.27669L5.39648 35.4373L5.27669 43.729H0.787109V51.2446H20.5527V43.729ZM69.459 44.1509C66.4017 44.1509 64.2715 43.2394 64.2715 35.7707C64.2715 28.2967 66.4017 27.3853 69.459 27.3853C72.5111 27.3853 74.6413 28.2967 74.6413 35.7707C74.6413 43.2394 72.5111 44.1509 69.459 44.1509ZM69.459 19.5467C55.2767 19.5467 52.7871 29.4269 52.7871 35.7655V35.7707C52.7871 42.1092 55.2767 51.9894 69.459 51.9894C83.6361 51.9894 86.1257 42.1092 86.1257 35.7707V35.7655C86.1257 29.4269 83.6361 19.5467 69.459 19.5467ZM38.0736 44.755C34.4434 44.755 29.1621 41.6925 28.7611 39.7967H22.7142V51.2446H29.4069V48.8696C29.4069 48.8696 33.6361 51.8957 39.7663 51.8957C47.8288 51.8957 51.8184 47.6613 51.8184 41.6925C51.8184 30.2863 31.7663 31.3332 31.7663 27.9009C31.7663 26.9217 33.5475 26.63 34.9382 26.63C36.3288 26.63 41.4225 26.8488 44.6673 31.1405H50.7663V20.4842L44.1569 20.4894V22.4634C41.459 20.328 35.8965 19.6405 34.0423 19.6405C24.0007 19.6405 22.3913 25.5675 22.3913 29.7238C22.3913 40.4842 42.4642 40.2811 42.4642 43.1873C42.4642 43.9113 40.7715 44.755 38.0736 44.755Z" fill="#AEAABA"/>
<path d="M52.9225 68.6978C52.334 68.2135 51.7194 67.776 51.0892 67.3905C54.0163 65.3749 56.5632 63.1458 58.7194 60.7083C60.36 61.526 61.9382 62.4843 63.4538 63.5728C60.2975 65.8489 56.7454 67.5937 52.9225 68.6978ZM43.4538 70.0364C40.6777 70.0364 37.985 69.6978 35.4017 69.0728C37.8027 67.3124 40.5632 66.3801 43.4538 66.3801C46.3496 66.3801 49.11 67.3124 51.5111 69.0728C48.9277 69.6978 46.2298 70.0364 43.4538 70.0364ZM23.459 63.5728C24.9694 62.4843 26.5527 61.526 28.1934 60.7083C30.3496 63.1458 32.8913 65.3749 35.8236 67.3905C35.1882 67.776 34.5788 68.2135 33.9902 68.6978C30.1621 67.5937 26.61 65.8489 23.459 63.5728ZM35.334 58.0937C36.4382 60.8228 37.7767 63.3958 39.3288 65.828C38.5215 66.0676 37.7298 66.3749 36.9642 66.7551C34.0163 64.7812 31.4538 62.5885 29.2871 60.1822C31.235 59.2968 33.2559 58.5937 35.334 58.0937ZM42.8757 57.1405V65.2447C42.0788 65.276 41.2923 65.3697 40.5215 65.5312C38.9486 63.1197 37.6048 60.552 36.4902 57.8333C38.5736 57.4062 40.709 57.177 42.8757 57.1405ZM44.0371 57.1405C46.2038 57.177 48.3392 57.4062 50.4225 57.8333C49.3079 60.552 47.9642 63.1197 46.3913 65.5312C45.6204 65.3697 44.834 65.276 44.0371 65.2447V57.1405ZM51.5736 58.0937C53.6517 58.5937 55.6725 59.2968 57.6204 60.1822C55.4538 62.5885 52.8913 64.7812 49.9434 66.7551C49.1777 66.3749 48.3913 66.0676 47.5788 65.828C49.1361 63.3958 50.4694 60.8228 51.5736 58.0937ZM64.4277 62.8437C62.8548 61.6874 61.209 60.6718 59.5007 59.7968C60.8913 58.1197 62.1048 56.3437 63.1465 54.4739C62.7507 54.3749 62.3652 54.2655 61.985 54.151C60.9694 55.9478 59.7767 57.651 58.4225 59.2655C56.3548 58.302 54.209 57.5416 51.9954 56.9947C52.9121 54.5624 53.6517 52.0155 54.2246 49.3645C53.9277 49.0364 53.6413 48.7083 53.3757 48.3593C53.3079 48.4739 53.235 48.5833 53.1621 48.6978C52.584 51.4999 51.8184 54.1874 50.8496 56.7343C48.6257 56.2655 46.3496 56.0155 44.0371 55.9739V54.677C43.6569 54.7551 43.2715 54.8176 42.8757 54.8749V55.9739C40.5579 56.0155 38.2819 56.2655 36.0632 56.7343C35.8027 56.0468 35.5579 55.3437 35.3236 54.6353C34.8652 54.5416 34.4225 54.4374 33.9954 54.3228C34.2819 55.2291 34.584 56.1197 34.9173 56.9947C32.7038 57.5416 30.5527 58.302 28.4902 59.2655C27.209 57.7447 26.0788 56.1353 25.0996 54.4478H23.7507C24.7923 56.3228 26.0111 58.1093 27.4121 59.7968C25.7038 60.6718 24.0527 61.6874 22.485 62.8437C19.459 60.4947 16.8392 57.6562 14.7454 54.4478H13.3652C19.6257 64.4947 30.7663 71.203 43.4538 71.203C55.9277 71.203 66.9121 64.7135 73.2246 54.9478C72.7298 55.0103 72.2246 55.0676 71.709 55.1093C69.6934 58.0416 67.2402 60.6614 64.4277 62.8437ZM33.9902 2.83846C34.5788 3.32284 35.1882 3.76033 35.8184 4.14575C32.9642 6.1145 30.4694 8.28117 28.3444 10.651C26.7142 9.84888 25.1413 8.90617 23.6361 7.83846C26.7454 5.62492 30.235 3.92179 33.9902 2.83846ZM43.4538 1.49992C46.2298 1.49992 48.9277 1.83846 51.5111 2.46346C49.11 4.22388 46.3496 5.15617 43.4538 5.15617C40.5632 5.15617 37.7975 4.22388 35.4017 2.46346C37.985 1.83846 40.6829 1.49992 43.4538 1.49992ZM63.2767 7.83846C61.7663 8.90617 60.1934 9.84888 58.5632 10.651C56.4382 8.28117 53.9486 6.1145 51.0892 4.14575C51.7194 3.76033 52.334 3.32284 52.9225 2.83846C56.6777 3.92179 60.1673 5.62492 63.2767 7.83846ZM51.4746 13.2135C50.3913 10.5676 49.0892 8.06763 47.5788 5.70825C48.3913 5.46867 49.1777 5.16138 49.9434 4.78117C52.8184 6.70304 55.3236 8.83846 57.4538 11.1718C55.5267 12.0364 53.5319 12.7239 51.4746 13.2135ZM44.0371 14.1405V6.29159C44.834 6.26033 45.6204 6.16659 46.3913 6.00513C47.9173 8.34888 49.2246 10.8385 50.3184 13.4687C48.2715 13.8853 46.1673 14.1093 44.0371 14.1405ZM42.8704 14.1405C40.7402 14.1093 38.6413 13.8853 36.5892 13.4687C37.6829 10.8385 38.9954 8.34888 40.5215 6.00513C41.2923 6.16659 42.0788 6.26033 42.8704 6.29159V14.1405ZM35.4329 13.2135C33.3809 12.7239 31.3809 12.0364 29.4538 11.1718C31.5892 8.83846 34.0892 6.70304 36.9642 4.78117C37.7298 5.16138 38.5215 5.46867 39.3288 5.70825C37.8184 8.06763 36.5215 10.5676 35.4329 13.2135ZM22.6517 8.56242C24.2194 9.70304 25.86 10.703 27.5579 11.5572C26.0996 13.2968 24.834 15.1458 23.7507 17.0885V19.3801C23.8184 19.328 23.8913 19.2864 23.959 19.2343C25.2038 16.6822 26.7611 14.2968 28.6465 12.0885C30.6934 13.0312 32.8184 13.776 35.0059 14.3072C34.735 15.0103 34.485 15.7239 34.2454 16.4426C34.5736 16.453 34.9798 16.4739 35.459 16.5103C35.6777 15.8593 35.9069 15.203 36.1517 14.5676C38.3444 15.026 40.5892 15.2708 42.8704 15.3072V17.2916L44.0371 17.2864V15.3072C46.3184 15.2708 48.5684 15.026 50.7559 14.5676C51.1048 15.453 51.4173 16.3645 51.7142 17.2812H52.9277C52.6152 16.276 52.2767 15.2812 51.9069 14.3072C54.0944 13.776 56.2194 13.0312 58.2611 12.0885C59.6569 13.7239 60.8757 15.453 61.9173 17.276C62.3027 17.1666 62.6986 17.0676 63.0996 16.9791C62.0319 15.0728 60.7871 13.2655 59.3496 11.5572C61.0527 10.703 62.6934 9.70304 64.2559 8.56242C67.1413 10.7708 69.6517 13.4322 71.7142 16.4322C72.2298 16.4687 72.7298 16.526 73.2246 16.5937C66.9121 6.82284 55.9277 0.333252 43.4538 0.333252C30.8965 0.333252 19.8496 6.90617 13.5579 16.7916H14.9486C17.0527 13.6458 19.6517 10.8593 22.6517 8.56242ZM30.3079 82.5833C29.8184 83.1197 29.1882 83.3853 28.4225 83.3853C27.6673 83.3853 27.0267 83.1197 26.5111 82.5833C25.9954 82.0468 25.735 81.3541 25.735 80.4947C25.735 79.5416 26.0059 78.7655 26.5527 78.1666C27.0996 77.5624 27.735 77.2655 28.4694 77.2655C29.1777 77.2655 29.7871 77.5416 30.2923 78.0989C30.7975 78.6562 31.0475 79.4114 31.0475 80.3593C31.0475 81.3072 30.8027 82.0468 30.3079 82.5833ZM30.6673 76.6041C29.9434 76.1353 29.1413 75.8958 28.2663 75.8958C27.0579 75.8958 26.0475 76.3124 25.2454 77.1458C24.4434 77.9791 24.0371 79.078 24.0371 80.4374C24.0371 81.7603 24.4225 82.8228 25.1934 83.6353C25.9642 84.4426 26.9069 84.8437 28.0215 84.8437C28.6882 84.8437 29.3079 84.6822 29.8809 84.3541C30.4486 84.026 30.9017 83.5989 31.2298 83.0728C31.235 83.2187 31.2402 83.328 31.2402 83.401C31.2402 84.0885 31.1569 84.7603 30.9954 85.4218C30.8288 86.0833 30.6204 86.6093 30.3809 86.9947C30.1309 87.3853 29.8184 87.6926 29.4382 87.927C29.0579 88.1614 28.61 88.276 28.1048 88.276C27.5111 88.276 27.0267 88.1093 26.6465 87.7708C26.2663 87.4322 26.0059 86.8905 25.8757 86.1458L24.2871 86.2916C24.4225 87.3541 24.8236 88.1718 25.4902 88.7551C26.1569 89.3385 27.0163 89.6353 28.0684 89.6353C29.0579 89.6353 29.9225 89.3697 30.6569 88.8333C31.3965 88.302 31.9486 87.526 32.3236 86.5103C32.6986 85.4895 32.8809 84.1197 32.8809 82.401C32.8809 80.7499 32.6934 79.4895 32.3184 78.6197C31.9434 77.7499 31.3913 77.078 30.6673 76.6041ZM40.3184 87.177C39.7975 87.9062 39.1621 88.276 38.4017 88.276C37.6465 88.276 37.0059 87.9114 36.4902 87.177C35.9746 86.4478 35.7142 84.9791 35.7142 82.7708C35.7142 80.5624 36.0007 79.0468 36.5684 78.2291C37.0215 77.5885 37.6257 77.2655 38.3861 77.2655C39.1569 77.2655 39.7975 77.6301 40.3184 78.3593C40.834 79.0833 41.0944 80.5572 41.0944 82.7708C41.0944 84.9739 40.834 86.4426 40.3184 87.177ZM41.6517 77.5885C41.2975 77.0416 40.8496 76.6249 40.3027 76.3333C39.7611 76.0416 39.1257 75.8958 38.4017 75.8958C37.4277 75.8958 36.6152 76.1614 35.9694 76.6874C35.3236 77.2135 34.834 77.9635 34.5111 78.9322C34.1829 79.901 34.0163 81.1822 34.0163 82.7708C34.0163 85.2968 34.4642 87.1197 35.3496 88.2395C36.0892 89.1718 37.1048 89.6353 38.4017 89.6353C39.3913 89.6353 40.2038 89.3697 40.8496 88.8385C41.4954 88.3124 41.9798 87.5624 42.3027 86.5937C42.6257 85.6249 42.7871 84.3489 42.7871 82.7708C42.7871 81.4374 42.6882 80.3749 42.485 79.5937C42.2871 78.8072 42.0059 78.1405 41.6517 77.5885ZM50.2975 87.177C49.7819 87.9062 49.1465 88.276 48.3861 88.276C47.6257 88.276 46.9902 87.9114 46.4694 87.177C45.9538 86.4478 45.6986 84.9791 45.6986 82.7708C45.6986 80.5624 45.9798 79.0468 46.5527 78.2291C47.0059 77.5885 47.61 77.2655 48.3704 77.2655C49.1361 77.2655 49.7819 77.6301 50.2975 78.3593C50.8184 79.0833 51.0736 80.5572 51.0736 82.7708C51.0736 84.9739 50.8184 86.4426 50.2975 87.177ZM51.6309 77.5885C51.2767 77.0416 50.8288 76.6249 50.2871 76.3333C49.7402 76.0416 49.1048 75.8958 48.3861 75.8958C47.4069 75.8958 46.5944 76.1614 45.9486 76.6874C45.3027 77.2135 44.8184 77.9635 44.4902 78.9322C44.1621 79.901 44.0007 81.1822 44.0007 82.7708C44.0007 85.2968 44.4434 87.1197 45.3288 88.2395C46.0684 89.1718 47.0892 89.6353 48.3861 89.6353C49.3704 89.6353 50.1829 89.3697 50.8288 88.8385C51.4746 88.3124 51.959 87.5624 52.2871 86.5937C52.61 85.6249 52.7715 84.3489 52.7715 82.7708C52.7715 81.4374 52.6725 80.3749 52.4694 79.5937C52.2663 78.8072 51.9902 78.1405 51.6309 77.5885ZM57.6673 77.6978C56.9746 78.3124 56.1725 78.8385 55.2454 79.276V80.8697C55.7611 80.6822 56.3392 80.3958 56.985 80.0155C57.6309 79.6405 58.1517 79.2603 58.5475 78.8801V89.4062H60.1986V75.8958H59.1361C58.8496 76.4791 58.36 77.078 57.6673 77.6978ZM375.844 59.2812H379.719V76.9062H375.844V59.2812ZM390.995 68.1666C392.938 68.1666 394.068 67.0103 394.068 65.4999V65.4478C394.068 63.7135 392.86 62.7812 390.923 62.7812H387.928V68.1666H390.995ZM384.048 59.2812H391.251C395.454 59.2812 397.995 61.776 397.995 65.3749V65.4218C397.995 69.5051 394.824 71.6197 390.87 71.6197H387.928V76.9062H384.048V59.2812ZM410.084 71.2916V71.2395C410.084 69.7551 408.923 68.6718 407.011 68.6718C405.094 68.6718 403.99 69.7291 403.99 71.2135V71.2655C403.99 72.7499 405.146 73.8853 407.058 73.8853C408.975 73.8853 410.084 72.802 410.084 71.2916ZM402.126 75.3176C400.839 74.0364 400.037 72.1458 400.037 68.6458V68.5937C400.037 63.1562 402.501 58.9791 407.766 58.9791C410.157 58.9791 411.719 59.6822 413.277 60.9166L411.24 63.9114C410.084 63.0312 409.152 62.5051 407.641 62.5051C404.995 62.5051 404.214 65.0468 404.089 66.5833C405.021 65.953 406.131 65.4478 407.74 65.4478C411.24 65.4478 413.933 67.3853 413.933 71.0624V71.1145C413.933 74.7135 411.037 77.2083 407.209 77.2083C404.923 77.2083 403.36 76.552 402.126 75.3176ZM416.35 74.5624L418.688 71.7708C420.021 72.9791 421.334 73.6822 422.896 73.6822C424.704 73.6822 425.839 72.802 425.839 71.2395V71.1926C425.839 69.677 424.558 68.7968 422.714 68.7968C421.61 68.7968 420.605 69.0989 419.771 69.453L417.532 67.9687L418.032 59.2812H428.86V62.677H421.36L421.157 65.7239C421.86 65.552 422.49 65.4218 423.475 65.4218C426.896 65.4218 429.641 67.0885 429.641 71.0624V71.1145C429.641 74.8385 427.001 77.2083 422.943 77.2083C420.126 77.2083 418.058 76.203 416.35 74.5624ZM413.219 32.3853L402.74 13.4895L392.261 32.3853H392.266C391.329 34.0885 390.798 36.0416 390.798 38.1249C390.798 44.7187 396.146 50.0676 402.74 50.0676C409.339 50.0676 414.688 44.7187 414.688 38.1249C414.688 36.0416 414.152 34.0885 413.219 32.3853Z" fill="#AEAABA"/>
<path d="M377.277 6.11979C369.99 6.11979 364.063 12.0469 364.063 19.3333V70.125C364.063 77.4115 369.99 83.3385 377.277 83.3385H428.068C435.355 83.3385 441.287 77.4115 441.287 70.125V19.3333C441.287 12.0469 435.355 6.11979 428.068 6.11979H377.277ZM428.068 88.1458H377.277C367.339 88.1458 359.256 80.0625 359.256 70.125V19.3333C359.256 9.39583 367.339 1.3125 377.277 1.3125H428.068C438.006 1.3125 446.089 9.39583 446.089 19.3333V70.125C446.089 80.0625 438.006 88.1458 428.068 88.1458Z" fill="#AEAABA"/>
<path d="M420.146 29.9687C420.146 27.6197 422.048 25.7187 424.391 25.7187C426.735 25.7187 428.636 27.6197 428.636 29.9687C428.636 32.3124 426.735 34.2135 424.391 34.2135C422.048 34.2135 420.146 32.3124 420.146 29.9687ZM425.787 20.1822C425.787 17.8385 427.688 15.9374 430.032 15.9374C432.376 15.9374 434.282 17.8385 434.282 20.1822C434.282 22.526 432.376 24.427 430.032 24.427C427.688 24.427 425.787 22.526 425.787 20.1822ZM414.501 20.1718C414.501 17.8228 416.402 15.9218 418.751 15.9218C421.094 15.9218 422.995 17.8228 422.995 20.1718C422.995 22.5155 421.094 24.4166 418.751 24.4166C416.402 24.4166 414.501 22.5155 414.501 20.1718ZM376.131 29.8437C376.131 27.4999 378.032 25.5989 380.376 25.5989C382.719 25.5989 384.62 27.4999 384.62 29.8437C384.62 32.1874 382.719 34.0885 380.376 34.0885C378.032 34.0885 376.131 32.1874 376.131 29.8437ZM381.771 20.0468C381.771 17.703 383.673 15.802 386.016 15.802C388.36 15.802 390.261 17.703 390.261 20.0468C390.261 22.3905 388.36 24.2916 386.016 24.2916C383.673 24.2916 381.771 22.3905 381.771 20.0468ZM370.485 20.1718C370.485 17.8228 372.386 15.9218 374.735 15.9218C377.079 15.9218 378.98 17.8228 378.98 20.1718C378.98 22.5155 377.079 24.4166 374.735 24.4166C372.386 24.4166 370.485 22.5155 370.485 20.1718ZM151.365 62.1562C141.792 62.1562 134.006 54.3697 134.006 44.7968C134.006 35.2239 141.792 27.4374 151.365 27.4374V32.3124C144.48 32.3124 138.876 37.9114 138.876 44.7968C138.876 51.6822 144.48 57.2864 151.365 57.2864V62.1562ZM176.511 62.1562C166.938 62.1562 159.152 54.3697 159.152 44.7968C159.152 35.2239 166.938 27.4374 176.511 27.4374V32.3124C169.626 32.3124 164.021 37.9114 164.021 44.7968C164.021 51.6822 169.626 57.2864 176.511 57.2864V62.1562Z" fill="#AEAABA"/>
<path d="M176.511 47.2344H161.584V42.3594H176.511V47.2344Z" fill="#AEAABA"/>
<path d="M156.958 6.08854C135.615 6.08854 118.25 23.4531 118.25 44.7969C118.25 66.1406 135.615 83.5052 156.958 83.5052C178.302 83.5052 195.667 66.1406 195.667 44.7969C195.667 23.4531 178.302 6.08854 156.958 6.08854ZM156.958 88.2552C132.995 88.2552 113.5 68.7604 113.5 44.7969C113.5 20.8333 132.995 1.33854 156.958 1.33854C180.917 1.33854 200.411 20.8333 200.411 44.7969C200.411 68.7604 180.917 88.2552 156.958 88.2552ZM604.365 68.0156C606.635 68.0156 608.083 66.8281 608.083 64.9896V64.9375C608.083 63 606.688 61.9375 604.339 61.9375H599.708V68.0156H604.365ZM596.531 59.0469H604.594C606.87 59.0469 608.651 59.7188 609.818 60.8542C610.776 61.8385 611.318 63.1823 611.318 64.7604V64.8073C611.318 67.7812 609.531 69.5677 607.026 70.2917L611.911 77.1406H608.135L603.693 70.8333H599.708V77.1406H596.531V59.0469ZM625.198 70.3958V70.3438C625.198 67.9375 623.464 65.9479 621.01 65.9479C618.5 65.9479 616.896 67.9115 616.896 70.2917V70.3438C616.896 72.7188 618.63 74.7083 621.062 74.7083C623.594 74.7083 625.198 72.7448 625.198 70.3958ZM613.771 70.3958V70.3438C613.771 66.4375 616.87 63.2083 621.062 63.2083C625.25 63.2083 628.323 66.3854 628.323 70.2917V70.3438C628.323 74.2188 625.224 77.4531 621.01 77.4531C616.844 77.4531 613.771 74.2708 613.771 70.3958ZM631.786 59.0469H634.969V66.5677H643.599V59.0469H646.781V77.1406H643.599V69.5156H634.969V77.1406H631.786V59.0469ZM650.135 74.5052L652.047 72.2292C653.781 73.7292 655.542 74.5833 657.766 74.5833C659.729 74.5833 660.969 73.651 660.969 72.3073V72.2552C660.969 70.9635 660.245 70.2656 656.885 69.4896C653.031 68.5573 650.859 67.4219 650.859 64.0833V64.0312C650.859 60.9323 653.448 58.7865 657.042 58.7865C659.677 58.7865 661.771 59.5885 663.609 61.0625L661.901 63.4635C660.271 62.25 658.641 61.6042 656.99 61.6042C655.125 61.6042 654.042 62.5625 654.042 63.75V63.8021C654.042 65.1979 654.87 65.8177 658.359 66.6458C662.182 67.5781 664.151 68.9479 664.151 71.9427V71.9948C664.151 75.3802 661.484 77.401 657.688 77.401C654.922 77.401 652.307 76.4427 650.135 74.5052ZM596.016 84.2188V84.1979C596.016 81.9531 597.698 80.1146 600.089 80.1146C601.542 80.1146 602.422 80.625 603.177 81.3438L602.286 82.3698C601.656 81.7865 600.979 81.3906 600.078 81.3906C598.578 81.3906 597.474 82.6302 597.474 84.1771V84.1979C597.474 85.7448 598.568 86.9948 600.078 86.9948C601.047 86.9948 601.667 86.6094 602.344 85.9792L603.234 86.8802C602.411 87.7396 601.51 88.2812 600.031 88.2812C597.734 88.2812 596.016 86.4896 596.016 84.2188ZM610.88 84.2188V84.1979C610.88 82.6667 609.766 81.3906 608.198 81.3906C606.63 81.3906 605.536 82.6406 605.536 84.1771V84.1979C605.536 85.7292 606.656 86.9948 608.219 86.9948C609.786 86.9948 610.88 85.7552 610.88 84.2188ZM604.083 84.2188V84.1979C604.083 81.9792 605.797 80.1146 608.219 80.1146C610.646 80.1146 612.339 81.9531 612.339 84.1771V84.1979C612.339 86.4219 610.625 88.2812 608.198 88.2812C605.776 88.2812 604.083 86.4427 604.083 84.2188ZM613.984 80.25H615.464L617.865 83.9844L620.266 80.25H621.745V88.1458H620.354V82.4844L617.865 86.2031H617.818L615.349 82.5052V88.1458H613.984V80.25ZM626.745 84.3542C627.792 84.3542 628.448 83.7708 628.448 82.9479V82.9219C628.448 82 627.781 81.5156 626.745 81.5156H625.13V84.3542H626.745ZM623.745 80.25H626.854C628.703 80.25 629.854 81.3021 629.854 82.8906V82.9115C629.854 84.6823 628.432 85.6094 626.698 85.6094H625.13V88.1458H623.745V80.25ZM631.245 80.25H632.63V86.8802H636.781V88.1458H631.245V80.25ZM638.271 80.25H639.656V88.1458H638.271V80.25ZM646.516 85.0104L645.151 81.8542L643.797 85.0104H646.516ZM644.531 80.1979H645.812L649.286 88.1458H647.823L647.021 86.2396H643.286L642.479 88.1458H641.057L644.531 80.1979ZM650.609 80.25H651.896L656.125 85.7083V80.25H657.49V88.1458H656.328L651.974 82.5312V88.1458H650.609V80.25ZM661.427 81.5365H658.922V80.25H665.328V81.5365H662.823V88.1458H661.427V81.5365ZM616.505 28.7448C616.505 28.7448 627.13 36.2188 628.885 42.0677C635.516 32.5156 644.682 20.3281 651.797 16.2292V1.3125C643.708 8.52604 629.885 29.7812 629.885 29.7812C625.766 23.5417 624.5 21.6927 624.5 21.6927L616.505 28.7448Z" fill="#AEAABA"/>
<path d="M647.843 22.4894C648.531 24.453 648.921 26.5519 648.921 28.7446C648.921 39.2394 640.38 47.7811 629.885 47.7811C619.385 47.7811 610.843 39.2394 610.843 28.7446C610.843 18.2446 619.385 9.70817 629.885 9.70817C636.39 9.70817 642.14 12.9894 645.577 17.9894L648.275 15.7238C644.187 9.95817 637.473 6.18213 629.885 6.18213C617.442 6.18213 607.322 16.3019 607.322 28.7446C607.322 41.1821 617.442 51.3071 629.885 51.3071C642.327 51.3071 652.447 41.1821 652.447 28.7446C652.447 25.8644 651.885 23.1196 650.895 20.5832C650.02 21.0519 648.942 21.6873 647.843 22.4894Z" fill="#AEAABA"/>
</svg>
