<svg width="1212" height="1165" viewBox="0 0 1212 1165" fill="none" xmlns="http://www.w3.org/2000/svg">
<path d="M1212 1161.77C1212 1163.49 1210.6 1164.9 1208.87 1164.9C1207.14 1164.9 1205.74 1163.49 1205.74 1161.77C1205.74 1160.04 1207.14 1158.64 1208.87 1158.64C1210.6 1158.64 1212 1160.04 1212 1161.77ZM311.479 14.6144H302.958L280.339 28.8592L257.714 14.6144H249.198L276.078 31.5415L249.094 48.5311H257.609L311.479 14.6144ZM9.26042 24.203C9.26042 29.4999 13.5677 33.8124 18.8698 33.8124H51.7969C54.5938 33.8124 56.8646 36.0832 56.8646 38.8801C56.8646 41.6717 54.5938 43.9478 51.7969 43.9478H5.36979L0.828125 48.4842H51.7969C57.099 48.4842 61.4062 44.1769 61.4062 38.8801C61.4062 33.578 57.0938 29.2707 51.7969 29.2707H18.8698C16.0729 29.2707 13.8021 26.9947 13.8021 24.203C13.8021 21.4061 16.0729 19.1353 18.8698 19.1353H64.1615C64.7344 17.5728 65.4167 16.0572 66.2031 14.5936H18.8698C13.5677 14.5936 9.26042 18.9009 9.26042 24.203ZM187.505 43.9478H145.953C143.156 43.9478 140.885 41.6717 140.885 38.8749V14.6144H136.344V38.8749C136.344 44.1769 140.656 48.4842 145.953 48.4842H187.505V43.9478ZM244.302 38.8801V14.6144H239.76V38.8801C239.76 41.6717 237.49 43.9478 234.693 43.9478H203.526C200.734 43.9478 198.458 41.6717 198.458 38.8801V14.6144H193.922V38.8801C193.922 44.1769 198.229 48.4842 203.526 48.4842H234.693C239.99 48.4842 244.302 44.1769 244.302 38.8801ZM97.9271 57.8592C83.4115 57.8592 71.6094 46.0519 71.6094 31.5415C71.6094 17.0259 83.4115 5.22382 97.9271 5.22382C112.438 5.22382 124.245 17.0259 124.245 31.5415C124.245 46.0519 112.438 57.8592 97.9271 57.8592ZM97.9271 0.682152C80.9115 0.682152 67.0677 14.5259 67.0677 31.5415C67.0677 48.5572 80.9115 62.3957 97.9271 62.3957C114.943 62.3957 128.781 48.5572 128.781 31.5415C128.781 14.5259 114.943 0.682152 97.9271 0.682152ZM287.661 33.4686L283.391 36.1457L303.062 48.5311H311.583L287.661 33.4686ZM141.901 65.9842L139.88 65.6405C138.792 65.4478 138.344 65.2342 138.344 64.6197C138.344 64.1978 138.542 63.7655 138.948 63.6092H140.599C141.427 63.6092 141.99 63.6769 142.292 63.7915C142.594 63.9113 142.818 64.1874 142.948 64.5936L143.828 64.3072C143.672 63.7394 143.354 63.3488 142.896 63.1144C142.438 62.8749 141.693 62.7603 140.625 62.7603C138.531 62.7603 137.365 63.2447 137.365 64.6978C137.365 65.7342 138.005 66.2082 139.646 66.4842L141.661 66.8228C142.557 66.979 142.99 67.2707 142.99 67.8853C142.99 68.2655 142.807 68.7394 142.479 68.9061H140.625C139.786 68.9061 139.172 68.828 138.792 68.6822C138.411 68.5259 138.151 68.1978 138.016 67.7134L137.167 67.9894C137.297 68.5936 137.609 69.0363 138.109 69.328C138.62 69.6144 139.448 69.7603 140.599 69.7603C142.859 69.7603 143.974 69.2759 143.974 67.7915C143.974 66.7967 143.406 66.2447 141.901 65.9842ZM152.297 68.9061H148.667C147.984 68.5259 147.5 67.4634 147.5 66.2707C147.5 65.0155 147.958 63.979 148.682 63.6092H152.286C152.969 63.9634 153.427 64.9894 153.427 66.2447C153.427 67.4113 152.979 68.4894 152.297 68.9061ZM150.359 62.7603C149.141 62.7603 148.286 62.9426 147.562 63.4686C146.87 63.9894 146.516 64.9478 146.516 66.354C146.516 68.4478 147.344 69.7603 150.583 69.7603C151.802 69.7603 152.651 69.578 153.349 69.0519C154.068 68.5259 154.411 67.5728 154.411 66.1665C154.411 65.0519 154.198 64.3072 153.609 63.6874C153.021 63.0572 151.943 62.7603 150.359 62.7603ZM157.625 69.6665H158.578V59.8332H157.625V69.6665ZM167.745 67.6769L165.755 68.9322H163.458C163.052 68.8176 162.818 68.354 162.818 67.7811C162.818 67.0988 163.026 66.6926 163.458 66.5624H167.745V67.6769ZM166.5 62.7603H165.505C165.016 62.7603 164.615 62.7707 164.312 62.8124C164.01 62.8488 163.693 62.9165 163.365 63.0363C162.724 63.2551 162.318 63.7551 162.109 64.5415L163.026 64.8436C163.198 64.3072 163.443 63.9634 163.797 63.7915C164.151 63.6249 164.719 63.5311 165.505 63.5311H167.417C167.615 63.6353 167.745 64.0311 167.745 64.3592V65.8384H164.979C163.891 65.8384 163.302 65.9165 162.682 66.1926C162.094 66.4686 161.818 67.0467 161.818 67.953C161.818 68.6301 162.068 69.104 162.552 69.3697C163.052 69.6301 163.891 69.7603 165.083 69.7603H165.896L167.771 68.4478H167.849L167.927 69.6665H168.703V64.3853C168.703 63.229 168.073 62.7603 166.5 62.7603ZM173.359 64.1457H173.203L173.125 62.8488H172.349V69.6665H173.307V65.0676L175.104 63.6874H176.531L176.599 62.7603H174.984L173.359 64.1457ZM182.839 69.6665H183.797V59.8332H182.839V69.6665ZM187.484 69.6665H188.438V62.8488H187.484V69.6665ZM187.969 60.0728C187.453 60.0728 187.219 60.229 187.219 60.7394C187.219 61.2082 187.401 61.4322 187.969 61.4322C188.453 61.4322 188.688 61.2655 188.688 60.7394C188.688 60.2811 188.505 60.0728 187.969 60.0728ZM198.458 67.4894L196.24 68.854H193.958C193.172 68.4738 192.661 67.4634 192.661 66.2707C192.661 64.9634 193.083 63.979 193.88 63.6092H196.479L198.458 64.8019V67.4894ZM198.562 64.0572H198.521L196.542 62.7603H195.625C194.365 62.7603 193.552 62.9009 192.807 63.3853C192.057 63.8749 191.677 64.854 191.677 66.3384C191.677 67.5311 191.969 68.3957 192.557 68.9322C193.146 69.4582 194.182 69.7186 195.635 69.7186H196.307L198.458 68.2759V69.6665C198.458 70.5467 198.104 71.4634 197.484 71.8332H195.297C194.052 71.8332 193.224 71.5051 192.844 70.8592L192.109 71.3488C192.531 72.2759 193.526 72.6561 195.469 72.6561C197 72.6561 198.036 72.4374 198.589 71.9894C199.141 71.5415 199.417 70.7707 199.417 69.6665V62.8488H198.641L198.562 64.0572ZM208.266 62.7603H205.776L204.188 64.0051H204.083V59.8332H203.125V69.6665H204.083V64.9061L205.932 63.6092H209.104C209.328 63.7394 209.448 64.0051 209.448 64.4113V69.6665H210.406V64.3853C210.406 63.2186 209.802 62.7603 208.266 62.7603ZM217.734 68.828C217.51 68.8801 217.172 68.9061 216.714 68.9061H215.677C215.349 68.5519 215.177 67.7915 215.177 66.6249V63.6249H218.234V62.8488H215.177V60.8697H214.234V62.8488H212.516V63.6249H214.234V66.6249C214.234 67.5728 214.286 68.1197 214.484 68.6613C214.589 68.9322 214.734 69.1457 214.927 69.2863C215.307 69.5884 215.911 69.7603 216.802 69.7603C217.656 69.7603 218.286 69.578 218.677 69.2238L218.349 68.5259C218.156 68.6717 217.958 68.7759 217.734 68.828ZM221.969 60.0728C221.458 60.0728 221.224 60.229 221.224 60.7394C221.224 61.2082 221.406 61.4322 221.969 61.4322C222.458 61.4322 222.693 61.2655 222.693 60.7394C222.693 60.2811 222.51 60.0728 221.969 60.0728ZM221.484 69.6665H222.443V62.8488H221.484V69.6665ZM231.188 62.7603H228.828L227.099 64.0415H227.005L226.927 62.8488H226.156V69.6665H227.109V64.8436L228.974 63.6092H232.135C232.344 63.729 232.49 64.0936 232.49 64.4113V69.6665H233.432V64.3853C233.432 63.2186 232.802 62.7603 231.188 62.7603ZM243.385 67.4894L241.167 68.854H238.885C238.099 68.4738 237.589 67.4634 237.589 66.2707C237.589 64.9634 238.01 63.979 238.807 63.6092H241.406L243.385 64.8019V67.4894ZM243.49 64.0572H243.448L241.469 62.7603H240.552C239.292 62.7603 238.479 62.9009 237.734 63.3853C236.984 63.8749 236.604 64.854 236.604 66.3384C236.604 67.5311 236.896 68.3957 237.484 68.9322C238.073 69.4582 239.109 69.7186 240.562 69.7186H241.234L243.385 68.2759V69.6665C243.385 70.5467 243.031 71.4634 242.411 71.8332H240.224C238.979 71.8332 238.151 71.5051 237.771 70.8592L237.036 71.3488C237.458 72.2759 238.453 72.6561 240.396 72.6561C241.927 72.6561 242.964 72.4374 243.516 71.9894C244.068 71.5415 244.344 70.7707 244.344 69.6665V62.8488H243.568L243.49 64.0572Z" fill="white"/>
</svg>
