<svg width="441" height="99" viewBox="0 0 441 99" fill="none" xmlns="http://www.w3.org/2000/svg">
<rect width="440" height="98.6667" transform="translate(0.941406)" fill="white"/>
<path d="M44.1447 40.7969H35.2905V42.5938H48.978L35.4624 56.1094L36.7332 57.3802L42.2957 51.8125L50.2489 43.8594V57.5521H52.0405V40.7969H44.1447Z" fill="#0F0F0F"/>
<path d="M81.207 29.2396H63.6029V11.6354H81.207V29.2396ZM81.207 48.6979H63.6029V31.0885H81.207V48.6979ZM81.207 68.151H63.6029V50.5469H81.207V68.151ZM81.207 87.6094H63.6029V70.0052H81.207V87.6094ZM61.7539 29.2396H44.1445V11.6354H61.7539V29.2396ZM61.7539 48.6979V68.151H24.6862V31.0885H61.7539V48.6979ZM61.7539 87.6094H44.1445V70.0052H61.7539V87.6094ZM42.2956 87.6094H24.6862V70.0052H42.2956V87.6094ZM24.6862 11.6354H42.2956V29.2396H24.6862V11.6354ZM22.8372 29.2396H5.23307V11.6354H22.8372V29.2396ZM22.8372 48.6979H5.23307V31.0885H22.8372V48.6979ZM22.8372 68.151H5.23307V50.5469H22.8372V68.151ZM22.8372 87.6094H5.23307V70.0052H22.8372V87.6094ZM83.056 87.6094V9.78646H3.37891V89.4583H82.3425V87.6094H83.056ZM104.421 44.6667H107.978C109.592 44.6667 110.702 45.7552 110.702 47.3906C110.702 49.026 109.592 50.1146 107.978 50.1146H104.421V44.6667ZM104.421 51.8229H108.113C109.457 51.8229 110.546 51.4167 111.363 50.6198C112.176 49.8021 112.587 48.7344 112.587 47.3906C112.587 46.0469 112.176 44.9792 111.363 44.1823C110.546 43.3646 109.457 42.9583 108.113 42.9583H102.587V56.5104H104.421V51.8229ZM127.561 54.8021H120.014V50.5417H126.139V48.9063H120.014V44.6667H127.228V42.9583H118.186V56.5104H127.561V54.8021ZM134.967 44.6667H138.723C140.223 44.6667 141.249 45.6406 141.249 47.099C141.249 48.5573 140.223 49.5313 138.723 49.5313H134.967V44.6667ZM134.967 51.2396H138.723L141.384 56.5104H143.467L140.551 50.9479C142.165 50.349 143.139 48.9479 143.139 47.099C143.139 45.8542 142.728 44.8646 141.931 44.1042C141.134 43.3438 140.082 42.9583 138.78 42.9583H133.145V56.5104H134.967V51.2396ZM151.009 50.9479H157.197V49.2969H151.009V44.6667H158.171V42.9583H149.186V56.5104H151.009V50.9479ZM178.488 87.6094H179.624V89.4583H180.337V11.6354H178.488V87.6094ZM178.488 9.78646H83.056V11.6354H178.488V9.78646ZM178.488 11.6354H180.337V9.78646H178.488V11.6354Z" fill="#0F0F0F"/>
<path d="M178.488 87.6094H83.0558V89.4583H179.624H178.488V87.6094ZM82.3423 89.4583H83.0558V87.6094H82.3423V89.4583Z" fill="#0F0F0F"/>
<path d="M178.488 89.4583H179.624V87.6094H178.488V89.4583ZM219.973 12.8698H241.587C243.665 12.8698 245.796 13.0312 247.556 14.2552C250.056 16.0104 250.27 19.2604 250.27 20.0573C250.27 22.776 249.098 24.3177 248.243 25.1146C245.796 27.4583 242.176 27.4583 239.087 27.4583H219.973V12.8698ZM219.973 30.5469H240.363C243.775 30.5469 247.447 30.3333 250.322 28.099C253.889 25.3802 254.155 21.5469 254.155 20.0573C254.155 16.8646 252.879 14.7344 252.186 13.8281C251.973 13.5104 251.28 12.7083 250.431 12.0156C247.66 9.94271 244.52 9.78125 241.217 9.78125H216.243V47.3698H219.973V30.5469ZM260.275 29.0052C260.598 28.4167 261.29 27.1927 262.618 25.9687C264.853 23.8906 267.41 23.1979 270.395 23.1979C274.228 23.1979 276.41 24.3177 277.796 25.1719C280.191 26.7135 281.681 28.7917 282.27 31.6146H259.426C259.691 30.2292 259.957 29.6927 260.275 29.0052ZM261.874 45.2969C265.707 47.8542 269.858 48.0625 271.457 48.0625C276.306 48.0625 279.712 46.3594 281.254 45.401C284.129 43.5417 285.78 41.1979 286.525 40.1823L283.759 38.2135C283.228 39.0677 283.014 39.3854 282.691 39.8125C279.02 44.5521 274.014 44.974 271.832 44.974C265.441 44.974 259.796 41.4063 259.316 34.5937H286.525C286.259 31.6667 285.941 30.3854 285.301 28.9479C284.4 26.875 283.118 25.4896 282.478 24.849C278.275 20.5365 272.629 20.2187 270.66 20.2187C265.124 20.2187 261.395 22.5625 259.853 23.9427C257.082 26.3385 255.645 30.0156 255.645 33.6354C255.645 38.4271 257.988 42.7396 261.874 45.2969ZM296.587 32.6771C296.587 32.4115 296.697 31.0781 296.962 30.1198C297.118 29.6406 297.65 27.9896 298.77 26.7656C299.941 25.5417 302.712 23.7292 306.973 23.7292C307.874 23.7292 308.78 23.8385 309.686 23.9427L309.738 20.2708C308.249 20.2187 302.816 19.7917 298.613 23.1458C297.493 24 296.91 24.9062 296.587 25.3281V21.0677H293.072V47.375H296.587V32.6771ZM329.171 21.0677H320.28V16.7552C320.28 14.3073 320.759 13.2448 321.879 12.5521C322.941 11.8594 324.275 11.9635 324.592 11.9635C326.457 11.9635 327.311 12.0729 329.118 12.4948L329.171 9.40625C326.832 8.875 325.181 8.875 324.165 8.875C321.931 8.875 319.801 9.14062 318.259 10.901C316.926 12.4427 316.764 13.9896 316.764 15.9063V21.0677H311.546V23.7865H316.764V47.375H320.28V23.7865H329.171V21.0677ZM385.743 11.9427L383.41 14.2708V48H386.145V9.61458H347.754V12.3437H381.483L383.811 10.0104L385.743 11.9427Z" fill="#0F0F0F"/>
<path d="M349.686 48L383.41 14.2708V12.3437H381.483L345.822 48H349.686Z" fill="#0F0F0F"/>
<path d="M383.41 14.2708L385.743 11.9427L383.811 10.0104L381.483 12.3437H383.41V14.2708ZM223.191 81.026H217.889V73.099H223.191C225.525 73.099 227.129 74.6719 227.129 77.0625C227.129 79.3958 225.525 81.026 223.191 81.026ZM223.243 71.2865H215.973V89.5H217.889V82.8073H223.243C224.999 82.8073 226.447 82.2865 227.52 81.2344C228.598 80.1823 229.145 78.7917 229.145 77.0625C229.145 75.3281 228.598 73.9375 227.52 72.8854C226.447 71.8125 224.999 71.2865 223.243 71.2865ZM234.874 81.2604H243.483V79.5H234.874V73.099H245.004V71.2865H232.957V89.5H245.504V87.6927H234.874V81.2604ZM256.764 80.2917H251.202V73.099H256.764C258.947 73.099 260.441 74.5677 260.441 76.6927C260.441 78.8698 258.973 80.2917 256.764 80.2917ZM262.462 76.6927C262.462 75.0677 261.936 73.7552 260.884 72.7813C259.837 71.7865 258.473 71.2865 256.764 71.2865H249.285V89.5H251.202V82.099H256.79L260.676 89.5H262.905L258.785 81.8125C261.072 81.1042 262.462 79.2396 262.462 76.6927ZM266.9 89.5H268.816V81.8125H277.608V80.026H268.816V73.099H278.921V71.2865H266.9V89.5ZM294.936 85.8802C293.676 87.2708 292.025 87.9531 289.952 87.9531C287.874 87.9531 286.223 87.2708 284.936 85.8802C283.676 84.4896 283.046 82.651 283.046 80.3698C283.046 78.1354 283.676 76.3281 284.936 74.9323C286.223 73.5417 287.874 72.8594 289.952 72.8594C292.025 72.8594 293.676 73.5417 294.936 74.9323C296.197 76.3281 296.827 78.1354 296.827 80.3698C296.827 82.651 296.197 84.4896 294.936 85.8802ZM289.952 71.026C287.243 71.026 285.092 71.8906 283.441 73.5938C281.811 75.3021 280.999 77.5573 280.999 80.3698C280.999 83.1771 281.811 85.4583 283.441 87.1927C285.092 88.9271 287.243 89.7917 289.952 89.7917C292.598 89.7917 294.754 88.9271 296.379 87.1927C298.035 85.4583 298.848 83.1771 298.848 80.3698C298.848 77.5573 298.035 75.3021 296.379 73.5938C294.754 71.8906 292.598 71.026 289.952 71.026ZM310.374 80.2917H304.811V73.099H310.374C312.551 73.099 314.051 74.5677 314.051 76.6927C314.051 78.8698 312.577 80.2917 310.374 80.2917ZM316.066 76.6927C316.066 75.0677 315.546 73.7552 314.493 72.7813C313.441 71.7865 312.082 71.2865 310.374 71.2865H302.895V89.5H304.811V82.099H310.4L314.285 89.5H316.514L312.395 81.8125C314.676 81.1042 316.066 79.2396 316.066 76.6927ZM330.009 87.2969L323.056 71.2865H320.509V89.5H322.426V74.0938L329.009 89.5H331.004L337.618 74.0417V89.5H339.535V71.2865H336.967L330.009 87.2969ZM347.077 83.2031L350.936 73.3073L354.79 83.2031H347.077ZM349.858 71.2865L342.639 89.5H344.634L346.395 84.9635H355.473L357.233 89.5H359.228L352.035 71.2865H349.858ZM375.243 86.6406L364.509 71.2865H362.327V89.5H364.243V74.1198L374.983 89.5H377.16V71.2865H375.243V86.6406ZM390.311 72.8594C391.967 72.8594 393.41 73.3073 394.592 74.1979C395.796 75.0938 396.535 76.276 396.822 77.7188L398.556 77.0885C398.186 75.276 397.243 73.8073 395.717 72.7031C394.197 71.5781 392.384 71.026 390.259 71.026C387.556 71.026 385.353 71.8906 383.671 73.625C382.02 75.3281 381.181 77.5833 381.181 80.3958C381.181 83.2031 382.02 85.4844 383.671 87.2188C385.353 88.9219 387.556 89.7917 390.259 89.7917C392.384 89.7917 394.197 89.2396 395.717 88.1354C397.243 87.0104 398.186 85.5365 398.556 83.7292L396.822 83.099C396.535 84.5417 395.77 85.724 394.566 86.6146C393.384 87.5052 391.967 87.9531 390.311 87.9531C388.186 87.9531 386.457 87.2708 385.171 85.8802C383.879 84.4896 383.228 82.6771 383.228 80.3958C383.228 78.1354 383.879 76.3229 385.171 74.9323C386.478 73.5417 388.186 72.8594 390.311 72.8594ZM404.436 87.6927V81.2604H413.046V79.5H404.436V73.099H414.566V71.2865H402.52V89.5H415.066V87.6927H404.436Z" fill="#0F0F0F"/>
</svg>
