<svg width="441" height="99" viewBox="0 0 441 99" fill="none" xmlns="http://www.w3.org/2000/svg">
<rect width="440" height="98.6667" transform="translate(0.941406)" fill="white"/>
<path d="M5.23307 16.1823H22.8372V14.3333H3.37891V33.7865H5.23307V16.1823ZM42.2956 14.3333H24.6862V16.1823H42.2956V14.3333ZM24.6862 16.1823H22.8372V33.7865H24.6862V16.1823ZM24.6862 14.3333H22.8372V16.1823H24.6862V14.3333ZM61.7539 14.3333H44.1445V16.1823H61.7539V14.3333ZM44.1445 16.1823H42.2956V33.7865H44.1445V16.1823ZM44.1445 14.3333H42.2956V16.1823H44.1445V14.3333ZM81.207 14.3333H63.6029V16.1823H81.207V14.3333ZM63.5977 16.1823H61.7539V33.7865H63.5977V16.1823ZM63.5977 14.3333H61.7539V16.1823H63.5977V14.3333ZM100.665 14.3333H83.056V16.1823H100.665V14.3333ZM83.056 16.1823H81.207V33.7865H83.056V16.1823ZM83.056 14.3333H81.207V16.1823H83.056V14.3333ZM120.118 14.3333H102.514V16.1823H120.118V14.3333ZM102.514 16.1823H100.665V33.7865H102.514V16.1823ZM102.514 14.3333H100.665V16.1823H102.514V14.3333ZM139.577 16.1823V14.3333H121.967V16.1823H139.577ZM121.967 14.3333H120.118V16.1823H121.967V14.3333ZM159.035 14.3333H141.426V16.1823H159.035V14.3333ZM141.426 16.1823H139.577V33.7865H141.426V16.1823ZM141.426 14.3333H139.577V16.1823H141.426V14.3333ZM178.488 16.1823V33.7865H180.337V14.3333H160.884V16.1823H178.488Z" fill="#0F0F0F"/>
<path d="M160.879 14.3333H159.03V16.1823H160.879V14.3333ZM5.23307 35.6354H3.37891V53.2448H5.23307V35.6354ZM22.8372 33.7865H5.23307V35.6354H22.8372V33.7865ZM5.23307 33.7865H3.37891V35.6354H5.23307V33.7865ZM42.2956 33.7865H24.6862V35.6354H42.2956V33.7865ZM24.6862 35.6354H22.8372V53.2448H24.6862V35.6354ZM24.6862 33.7865H22.8372V35.6354H24.6862V33.7865ZM61.7539 33.7865H44.1445V35.6354H61.7539V33.7865ZM44.1445 35.6354H42.2956V53.2448H44.1445V35.6354ZM44.1445 33.7865H42.2956V35.6354H44.1445V33.7865ZM81.207 33.7865H63.6029V35.6354H81.207V33.7865ZM63.5977 35.6354H61.7539V53.2448H63.5977V35.6354ZM63.5977 33.7865H61.7539V35.6354H63.5977V33.7865ZM100.665 33.7865H83.056V35.6354H100.665V33.7865ZM83.056 35.6354H81.207V53.2448H83.056V35.6354ZM83.056 33.7865H81.207V35.6354H83.056V33.7865ZM100.665 53.2448H102.514V35.6354H100.665V53.2448ZM102.514 33.7865H100.665V35.6354H102.514V33.7865ZM141.426 35.6354H139.577V53.2448H141.426V35.6354ZM141.426 33.7865H139.577V35.6354H141.426V33.7865ZM178.488 53.2448H180.337V35.6354H178.488V53.2448ZM178.488 35.6354H180.337V33.7865H178.488V35.6354ZM5.23307 55.0938H3.37891V72.7031H5.23307V55.0938ZM22.8372 53.2448H5.23307V55.0938H22.8372V53.2448ZM5.23307 53.2448H3.37891V55.0938H5.23307V53.2448ZM42.2956 53.2448H24.6862V55.0938H42.2956V53.2448ZM24.6862 55.0938H22.8372V72.7031H24.6862V55.0938ZM24.6862 53.2448H22.8372V55.0938H24.6862V53.2448ZM61.7539 53.2448H44.1445V55.0938H61.7539V53.2448ZM44.1445 55.0938H42.2956V72.7031H44.1445V55.0938ZM42.2956 55.0938H44.1445V53.2448H42.2956V55.0938ZM81.207 53.2448H63.6029V55.0938H81.207V53.2448ZM61.7539 72.7031H63.5977V55.0938H61.7539V72.7031ZM63.5977 53.2448H61.7539V55.0938H63.5977V53.2448ZM83.056 55.0938H100.665V53.2448H83.056V55.0938ZM81.207 72.7031H83.056V55.0938H81.207V72.7031ZM83.056 53.2448H81.207V55.0938H83.056V53.2448ZM120.118 53.2448H102.514V55.0938H120.118V53.2448ZM102.514 55.0938H100.665V72.7031H102.514V55.0938ZM100.665 55.0938H102.514V53.2448H100.665V55.0938ZM139.577 55.0938V53.2448H121.967V55.0938H139.577ZM121.967 55.0938H120.118V72.7031H121.967V55.0938ZM121.967 53.2448H120.118V55.0938H121.967V53.2448ZM159.035 53.2448H141.426V55.0938H159.035V53.2448ZM141.426 55.0938H139.577V72.7031H141.426V55.0938ZM141.426 53.2448H139.577V55.0938H141.426V53.2448ZM178.488 72.7031H180.337V55.0938H178.488V72.7031ZM160.879 55.0938H178.488V53.2448H160.879V55.0938ZM178.488 55.0938H180.337V53.2448H178.488V55.0938ZM159.035 72.7031H160.884V55.0938H159.035V72.7031Z" fill="#0F0F0F"/>
<path d="M160.879 53.2448H159.03V55.0938H160.879V53.2448ZM22.8372 92.1563H5.23307V74.5521H3.37891V94.0052H22.8372V92.1563ZM22.8372 72.7031H5.23307V74.5521H22.8372V72.7031ZM5.23307 72.7031H3.37891V74.5521H5.23307V72.7031ZM24.6862 94.0052H42.2956V92.1563H24.6862V94.0052ZM42.2956 72.7031H24.6862V74.5521H42.2956V72.7031ZM24.6862 74.5521H22.8372V92.1563H24.6862V74.5521ZM22.8372 94.0052H24.6862V92.1563H22.8372V94.0052ZM22.8372 74.5521H24.6862V72.7031H22.8372V74.5521ZM44.1445 94.0052H61.7539V92.1563H44.1445V94.0052ZM44.1445 74.5521H61.7539V72.7031H44.1445V74.5521ZM42.2956 92.1563H44.1445V74.5521H42.2956V92.1563ZM42.2956 94.0052H44.1445V92.1563H42.2956V94.0052ZM42.2956 74.5521H44.1445V72.7031H42.2956V74.5521ZM63.5977 94.0052H81.207V92.1563H63.5977V94.0052ZM63.5977 74.5521H81.207V72.7031H63.5977V74.5521ZM61.7539 92.1563H63.5977V74.5521H61.7539V92.1563ZM61.7539 94.0052H63.5977V92.1563H61.7539V94.0052ZM61.7539 74.5521H63.5977V72.7031H61.7539V74.5521ZM83.056 94.0052H100.665V92.1563H83.056V94.0052ZM83.056 74.5521H100.665V72.7031H83.056V74.5521ZM81.207 92.1563H83.056V74.5521H81.207V92.1563ZM81.207 94.0052H83.056V92.1563H81.207V94.0052ZM81.207 74.5521H83.056V72.7031H81.207V74.5521ZM102.514 94.0052H120.124V92.1563H102.514V94.0052ZM102.514 74.5521H120.124V72.7031H102.514V74.5521ZM100.665 92.1563H102.514V74.5521H100.665V92.1563ZM100.665 94.0052H102.514V92.1563H100.665V94.0052ZM100.665 74.5521H102.514V72.7031H100.665V74.5521ZM121.967 94.0052H139.577V92.1563H121.967V94.0052ZM121.967 74.5521H139.577V72.7031H121.967V74.5521ZM120.118 92.1563H121.967V74.5521H120.118V92.1563Z" fill="#0F0F0F"/>
<path d="M120.119 94.0052H121.968V92.1562H120.119V94.0052ZM120.119 74.5521H121.968V72.7031H120.119V74.5521ZM141.426 94.0052H159.035V92.1562H141.426V94.0052ZM141.426 74.5521H159.035V72.7031H141.426V74.5521ZM139.577 92.1562H141.426V74.5521H139.577V92.1562ZM139.577 94.0052H141.426V92.1562H139.577V94.0052ZM139.577 74.5521H141.426V72.7031H139.577V74.5521ZM178.488 92.1562H160.884V94.0052H180.337V74.5521H178.488V92.1562ZM160.879 74.5521H178.488V72.7031H160.879V74.5521ZM178.488 74.5521H180.337V72.7031H178.488V74.5521ZM159.035 92.1562H160.884V74.5521H159.035V92.1562ZM159.035 94.0052H160.884V92.1562H159.035V94.0052Z" fill="#0F0F0F"/>
<path d="M159.035 74.5521H160.884V72.7031H159.035V74.5521ZM124.519 32.1458C124.519 32.7917 124.342 33.3437 124.03 33.7865H126.144C126.311 33.2917 126.405 32.75 126.405 32.1458C126.405 30.8021 125.999 29.7344 125.181 28.9323C124.374 28.125 123.295 27.7187 121.967 27.7135V29.4375C123.488 29.5104 124.519 30.5729 124.519 32.1458ZM118.238 36.5781H120.118V35.6354H116.405V41.2656H118.238V36.5781ZM121.967 36.5781C123.129 36.5677 124.082 36.2396 124.847 35.6354H121.967V36.5781ZM118.238 29.4219H120.118V27.7083H116.405V33.7917H118.238V29.4219ZM121.795 29.4219C121.858 29.4219 121.91 29.4323 121.967 29.4375V27.7135C121.957 27.7135 121.946 27.7083 121.931 27.7083H120.118V29.4219H121.795Z" fill="#0F0F0F"/>
<path d="M120.118 34.8698H118.238V33.7865H116.41V35.6354H120.118V34.8698ZM121.967 34.8542V35.6354H124.848C124.957 35.5469 125.077 35.474 125.181 35.375C125.629 34.9271 125.947 34.3906 126.145 33.7865H124.03C123.587 34.4219 122.863 34.8073 121.967 34.8542ZM120.118 35.6354V36.5781H121.967V35.6354H120.118ZM121.967 34.8542C121.91 34.8542 121.858 34.8698 121.796 34.8698H120.118V35.6354H121.967V34.8542ZM160.879 28.1562H159.03V33.7917H160.879V28.1562Z" fill="#0F0F0F"/>
<path d="M159.035 33.7865H153.405V35.6354H159.035V33.7865ZM166.514 33.7865H160.884V35.6354H166.514V33.7865ZM159.035 41.2656H160.884V35.6354H159.035V41.2656Z" fill="#0F0F0F"/>
<path d="M160.879 33.7865H159.03V35.6354H160.879V33.7865ZM217.462 17.4792H239.035C241.108 17.4792 243.233 17.6406 244.988 18.8594C247.483 20.6146 247.696 23.8542 247.696 24.6562C247.696 27.3646 246.53 28.9063 245.676 29.7031C243.233 32.0417 239.618 32.0417 236.54 32.0417H217.462V17.4792ZM217.462 35.1198H237.811C241.212 35.1198 244.879 34.9115 247.749 32.6771C251.311 29.9687 251.577 26.1406 251.577 24.6562C251.577 21.4635 250.301 19.3385 249.613 18.4375C249.4 18.1146 248.707 17.3229 247.858 16.6302C245.092 14.5573 241.957 14.3958 238.665 14.3958H213.738V51.9115H217.462V35.1198ZM261.191 17.4792H283.618C285.743 17.4792 287.816 17.4792 289.676 18.7031C292.28 20.4531 292.545 23.5885 292.545 24.4948C292.545 26.1927 291.962 27.5729 291.696 28.1094C290.103 31.2396 286.967 31.776 283.832 31.9323C282.978 31.9844 282.181 31.9844 281.332 31.9844H261.191V17.4792ZM261.191 35.1771H278.358L293.181 51.9115H298.233L283.139 35.1771C286.436 35.0156 289.837 34.8542 292.65 32.7812C296.212 30.125 296.478 26.1927 296.478 24.7083C296.478 23.6979 296.374 21.0937 294.832 18.7552C292.176 14.7135 287.764 14.5052 286.222 14.4479C285.316 14.3958 284.415 14.3958 283.514 14.3958H257.577V51.9115H261.191V35.1771ZM312.946 19.9219C317.04 16.8958 322.087 16.5208 323.629 16.4687C329.103 16.2552 333.144 17.9583 334.946 18.9167C340.264 21.7865 341.858 26.724 342.337 28.7969C342.811 30.7083 342.759 31.9844 342.759 32.8385C342.759 35.1771 342.441 41.7135 336.598 46.125C331.973 49.5781 326.608 49.7344 324.749 49.7344C322.087 49.7344 311.462 49.2031 307.691 39.6927C306.571 36.9271 306.467 34.2708 306.467 33.2604C306.467 25.7708 310.769 21.5208 312.946 19.9219ZM324.535 52.9219C327.457 52.9219 336.488 52.5 342.551 45.2187C346.426 40.5417 346.853 35.1771 346.853 33.0469C346.853 31.1875 346.535 26.9375 343.821 22.6354C338.191 13.7083 327.879 13.2292 324.801 13.2292C316.139 13.1771 307.582 17 304.077 25.3958C302.639 28.7448 302.535 31.7187 302.535 33.1042C302.535 34.8542 302.696 38.6823 304.978 42.776C310.342 52.3906 321.504 52.9219 324.535 52.9219ZM371.061 27.4427H373.785V17.2969H371.061V27.4427ZM371.061 14.5677H360.91V17.2969H371.061V14.5677ZM383.936 14.5677H373.79V17.2969H383.936V14.5677ZM373.785 4.42187H371.061V14.5729H373.785V4.42187Z" fill="#0F0F0F"/>
<path d="M373.785 14.5677H371.061V17.2969H373.785V14.5677ZM215.384 77.5885H220.67C223.004 77.5885 224.603 79.1615 224.603 81.5417C224.603 83.875 223.004 85.5 220.67 85.5H215.384V77.5885ZM215.384 87.2813H220.722C222.483 87.2813 223.92 86.7552 224.993 85.7083C226.071 84.6615 226.618 83.2708 226.618 81.5417C226.618 79.8125 226.071 78.4271 224.993 77.3802C223.92 76.3021 222.483 75.7812 220.722 75.7812H213.467V93.9583H215.384V87.2813ZM237.884 84.7656H232.332V77.5885H237.884C240.061 77.5885 241.556 79.0521 241.556 81.1771C241.556 83.349 240.087 84.7656 237.884 84.7656ZM243.571 81.1771C243.571 79.5521 243.045 78.2448 241.999 77.2708C240.952 76.2812 239.587 75.7812 237.884 75.7812H230.42V93.9583H232.332V86.5729H237.915L241.79 93.9583H244.014L239.9 86.2865C242.181 85.5781 243.571 83.7188 243.571 81.1771ZM260.025 77.5885V75.7812H248.004V93.9583H260.525V92.151H249.915V85.7344H258.504V83.9792H249.915V77.5885H260.025ZM273.78 91.7604L266.837 75.7812H264.295V93.9583H266.207V78.5833L272.785 93.9583H274.775L281.374 78.5312V93.9583H283.29V75.7812H280.722L273.78 91.7604ZM288.139 93.9583H290.056V75.7812H288.139V93.9583ZM296.681 87.0417V75.7812H294.769V87.0417C294.769 89.1927 295.42 90.9219 296.759 92.2552C298.097 93.5938 299.853 94.2448 302.051 94.2448C304.222 94.2448 305.978 93.5938 307.316 92.2552C308.655 90.9219 309.332 89.1927 309.332 87.0417V75.7812H307.394V87.0417C307.394 88.6406 306.894 89.9531 305.931 90.9479C304.957 91.9167 303.65 92.4115 302.051 92.4115C300.431 92.4115 299.118 91.9167 298.15 90.9479C297.181 89.9531 296.681 88.6406 296.681 87.0417ZM323.509 91.7604L316.566 75.7812H314.025V93.9583H315.936V78.5833L322.514 93.9583H324.504L331.103 78.5312V93.9583H333.014V75.7812H330.452L323.509 91.7604ZM345.676 77.5885H349.551C351.754 77.5885 353.535 78.2708 354.868 79.6042C356.207 80.9427 356.889 82.6979 356.889 84.8698C356.889 87.0417 356.207 88.8229 354.868 90.1615C353.535 91.4948 351.754 92.151 349.551 92.151H345.676V77.5885ZM343.764 93.9583H349.577C352.384 93.9583 354.634 93.1198 356.337 91.4688C358.066 89.7969 358.931 87.5937 358.931 84.8698C358.931 82.1458 358.066 79.9427 356.363 78.2969C354.66 76.6198 352.431 75.7812 349.634 75.7812H343.764V93.9583ZM374.993 77.5885V75.7812H362.967V93.9583H375.488V92.151H364.879V85.7344H373.473V83.9792H364.879V77.5885H374.993ZM378.478 80.4427C378.478 82.9323 379.946 84.6875 382.566 85.2344L386.728 86.1771C388.696 86.599 389.769 87.6458 389.769 89.0885C389.769 91.1042 387.936 92.4948 385.186 92.4948C383.639 92.4948 382.353 92.099 381.389 91.3125C380.415 90.5 379.894 89.4531 379.842 88.1198L378.035 88.4063C378.165 90.1615 378.848 91.5729 380.129 92.651C381.41 93.724 383.066 94.2448 385.025 94.2448C387.045 94.2448 388.696 93.776 389.926 92.8333C391.16 91.8646 391.785 90.6302 391.785 89.0885C391.785 86.7031 390.238 85.026 387.41 84.375L383.275 83.401C381.41 82.9583 380.493 81.9896 380.493 80.4427C380.493 78.5312 382.223 77.2448 384.842 77.2448C387.28 77.2448 389.191 78.6354 389.639 80.7083L391.42 80.1302C391.103 78.7396 390.342 77.6406 389.165 76.8021C387.988 75.9375 386.598 75.5156 385.004 75.5156C383.04 75.5156 381.467 75.9635 380.259 76.8802C379.082 77.7708 378.478 78.9479 378.478 80.4427ZM397.603 75.7812H395.691V93.9583H397.603V75.7812ZM410.467 94.2448C413.634 94.2448 416.098 92.9115 417.358 90.6042L417.936 93.9583H419.243V84.0313H410.337V85.7344H417.249C417.223 87.724 416.624 89.349 415.415 90.5781C414.212 91.8125 412.639 92.4115 410.702 92.4115C408.582 92.4115 406.879 91.7344 405.598 90.3438C404.311 88.9583 403.66 87.151 403.66 84.8698C403.66 82.6146 404.311 80.8073 405.598 79.4219C406.905 78.0312 408.608 77.3542 410.733 77.3542C412.379 77.3542 413.795 77.7969 414.973 78.6615C416.176 79.526 416.941 80.6771 417.223 82.1198L418.926 81.4896C418.535 79.6823 417.592 78.2448 416.071 77.1667C414.582 76.0677 412.775 75.5156 410.676 75.5156C407.978 75.5156 405.78 76.3854 404.103 78.1094C402.452 79.8125 401.613 82.0677 401.613 84.8698C401.613 87.6719 402.426 89.9531 404.051 91.6823C405.676 93.3854 407.821 94.2448 410.467 94.2448ZM425.613 78.6094L436.327 93.9583H438.499V75.7812H436.587V91.1042L425.874 75.7812H423.696V93.9583H425.613V78.6094Z" fill="#0F0F0F"/>
</svg>
