<svg width="98" height="15" viewBox="0 0 98 15" fill="none" xmlns="http://www.w3.org/2000/svg">
<path d="M13.5671 7.76546C13.5671 11.1769 10.8014 13.9425 7.38997 13.9425C3.97852 13.9425 1.21289 11.1769 1.21289 7.76546C1.21289 4.354 3.97852 1.58838 7.38997 1.58838C10.8014 1.58838 13.5671 4.354 13.5671 7.76546ZM41.3066 7.76546C41.3066 11.1769 38.541 13.9425 35.1296 13.9425C31.7181 13.9425 28.9525 11.1769 28.9525 7.76546C28.9525 4.354 31.7181 1.58838 35.1296 1.58838C38.541 1.58838 41.3066 4.354 41.3066 7.76546ZM69.0462 7.76546C69.0462 11.1769 66.2806 13.9425 62.8691 13.9425C59.4577 13.9425 56.6921 11.1769 56.6921 7.76546C56.6921 4.354 59.4577 1.58838 62.8691 1.58838C66.2806 1.58838 69.0462 4.354 69.0462 7.76546ZM96.7858 7.76546C96.7858 11.1769 94.0202 13.9425 90.6087 13.9425C87.1973 13.9425 84.4316 11.1769 84.4316 7.76546C84.4316 4.354 87.1973 1.58838 90.6087 1.58838C94.0202 1.58838 96.7858 4.354 96.7858 7.76546Z" stroke="white" stroke-width="1.33333" stroke-miterlimit="10"/>
</svg>
