<?xml version="1.0" encoding="utf-8"?>
<!-- Generator: Adobe Illustrator 19.0.0, SVG Export Plug-In . SVG Version: 6.00 Build 0)  -->
<svg version="1.1" id="Layer_1" xmlns="http://www.w3.org/2000/svg" xmlns:xlink="http://www.w3.org/1999/xlink" x="0px" y="0px"
	 viewBox="0 0 310.7 72" style="enable-background:new 0 0 310.7 72;" xml:space="preserve">
<style type="text/css">
	.st0{fill:#FFFFFF;}
</style>
<g id="XMLID_1_">
	<polygon id="XMLID_29_" class="st0" points="310.7,13.9 302.1,13.9 279.5,28.2 256.9,13.9 248.4,13.9 275.2,30.9 248.3,47.8 
		256.8,47.8 279.5,33.5 283.8,30.9 	"/>
	<path id="XMLID_28_" class="st0" d="M8.4,23.5c0,5.3,4.3,9.6,9.6,9.6H51c2.8,0,5.1,2.3,5.1,5.1c0,2.8-2.3,5.1-5.1,5.1H4.5L0,47.8
		h51c5.3,0,9.6-4.3,9.6-9.6c0-5.3-4.3-9.6-9.6-9.6H18c-2.8,0-5.1-2.3-5.1-5.1c0-2.8,2.3-5.1,5.1-5.1h45.3c0.6-1.6,1.3-3.1,2-4.5H18
		C12.7,13.9,8.4,18.2,8.4,23.5z"/>
	<path id="XMLID_27_" class="st0" d="M186.7,43.3h-41.6c-2.8,0-5.1-2.3-5.1-5.1V13.9h-4.5v24.3c0,5.3,4.3,9.6,9.6,9.6h41.6V43.3z"/>
	<path id="XMLID_26_" class="st0" d="M243.5,38.2V13.9h-4.5v24.3c0,2.8-2.3,5.1-5.1,5.1h-31.2c-2.8,0-5.1-2.3-5.1-5.1V13.9h-4.5
		v24.3c0,5.3,4.3,9.6,9.6,9.6h31.2C239.2,47.8,243.5,43.5,243.5,38.2z"/>
	<path id="XMLID_25_" class="st0" d="M97.1,57.2c-14.5,0-26.3-11.8-26.3-26.3c0-14.5,11.8-26.3,26.3-26.3
		c14.5,0,26.3,11.8,26.3,26.3C123.4,45.4,111.6,57.2,97.1,57.2z"/>
	<path id="XMLID_24_" class="st0" d="M97.1,0c-17,0-30.9,13.8-30.9,30.9c0,17,13.8,30.9,30.9,30.9c17,0,30.9-13.8,30.9-30.9
		C128,13.8,114.1,0,97.1,0z"/>
	<polygon id="XMLID_23_" class="st0" points="286.8,32.8 282.6,35.5 302.2,47.8 310.8,47.8 	"/>
	<path id="XMLID_22_" class="st0" d="M141.1,65.3l-2-0.3c-1.1-0.2-1.5-0.4-1.5-1c0-0.4,0.2-0.9,0.6-1h1.7c0.8,0,1.4,0.1,1.7,0.2
		c0.3,0.1,0.5,0.4,0.7,0.8l0.9-0.3c-0.2-0.6-0.5-1-0.9-1.2c-0.5-0.2-1.2-0.4-2.3-0.4c-2.1,0-3.3,0.5-3.3,1.9c0,1,0.6,1.5,2.3,1.8
		l2,0.3c0.9,0.2,1.3,0.4,1.3,1.1c0,0.4-0.2,0.9-0.5,1h-1.9c-0.8,0-1.5-0.1-1.8-0.2c-0.4-0.2-0.6-0.5-0.8-1l-0.8,0.3
		c0.1,0.6,0.4,1,0.9,1.3c0.5,0.3,1.3,0.4,2.5,0.4c2.3,0,3.4-0.5,3.4-2C143.1,66.1,142.6,65.6,141.1,65.3z"/>
	<path id="XMLID_21_" class="st0" d="M151.5,68.2h-3.6c-0.7-0.4-1.2-1.4-1.2-2.6c0-1.3,0.5-2.3,1.2-2.7h3.6c0.7,0.4,1.1,1.4,1.1,2.6
		C152.6,66.7,152.2,67.8,151.5,68.2z"/>
	<path id="XMLID_20_" class="st0" d="M149.5,62.1c-1.2,0-2.1,0.2-2.8,0.7c-0.7,0.5-1,1.5-1,2.9c0,2.1,0.8,3.4,4.1,3.4
		c1.2,0,2.1-0.2,2.8-0.7c0.7-0.5,1.1-1.5,1.1-2.9c0-1.1-0.2-1.9-0.8-2.5C152.2,62.4,151.1,62.1,149.5,62.1z"/>
	<rect id="XMLID_19_" x="156.8" y="59.2" class="st0" width="1" height="9.8"/>
	<path id="XMLID_18_" class="st0" d="M166.9,67l-2,1.3h-2.3c-0.4-0.1-0.6-0.6-0.6-1.2c0-0.7,0.2-1.1,0.6-1.2h4.3V67z"/>
	<path id="XMLID_17_" class="st0" d="M165.7,62.1h-1c-0.5,0-0.9,0-1.2,0.1c-0.3,0-0.6,0.1-0.9,0.2c-0.6,0.2-1,0.7-1.3,1.5l0.9,0.3
		c0.2-0.5,0.4-0.9,0.8-1.1c0.4-0.2,0.9-0.3,1.7-0.3h1.9c0.2,0.1,0.3,0.5,0.3,0.8v1.5h-2.8c-1.1,0-1.7,0.1-2.3,0.4
		c-0.6,0.3-0.9,0.9-0.9,1.8c0,0.7,0.3,1.2,0.7,1.4c0.5,0.3,1.3,0.4,2.5,0.4h0.8l1.9-1.3h0.1l0.1,1.2h0.8v-5.3
		C167.9,62.5,167.2,62.1,165.7,62.1z"/>
	<polygon id="XMLID_16_" class="st0" points="172.5,63.5 172.4,63.5 172.3,62.2 171.5,62.2 171.5,69 172.5,69 172.5,64.4 174.3,63 
		175.7,63 175.8,62.1 174.2,62.1 	"/>
	<rect id="XMLID_15_" x="182" y="59.2" class="st0" width="1" height="9.8"/>
	<rect id="XMLID_14_" x="186.7" y="62.2" class="st0" width="1" height="6.8"/>
	<path id="XMLID_13_" class="st0" d="M187.1,59.4c-0.5,0-0.8,0.2-0.8,0.7c0,0.5,0.2,0.7,0.8,0.7c0.5,0,0.7-0.2,0.7-0.7
		C187.9,59.6,187.7,59.4,187.1,59.4z"/>
	<path id="XMLID_12_" class="st0" d="M197.6,66.8l-2.2,1.4h-2.3c-0.8-0.4-1.3-1.4-1.3-2.6c0-1.3,0.4-2.3,1.2-2.7h2.6l2,1.2V66.8z"/>
	<path id="XMLID_11_" class="st0" d="M197.7,63.4L197.7,63.4l-2-1.3h-0.9c-1.3,0-2.1,0.1-2.8,0.6c-0.8,0.5-1.1,1.5-1.1,3
		c0,1.2,0.3,2.1,0.9,2.6c0.6,0.5,1.6,0.8,3.1,0.8h0.7l2.2-1.4V69c0,0.9-0.4,1.8-1,2.2h-2.2c-1.2,0-2.1-0.3-2.5-1l-0.7,0.5
		c0.4,0.9,1.4,1.3,3.4,1.3c1.5,0,2.6-0.2,3.1-0.7c0.6-0.4,0.8-1.2,0.8-2.3v-6.8h-0.8L197.7,63.4z"/>
	<path id="XMLID_10_" class="st0" d="M207.4,62.1h-2.5l-1.6,1.2h-0.1v-4.2h-1V69h1v-4.8l1.8-1.3h3.2c0.2,0.1,0.3,0.4,0.3,0.8V69h1
		v-5.3C209.6,62.5,209,62.1,207.4,62.1z"/>
	<path id="XMLID_9_" class="st0" d="M216.9,68.1c-0.2,0.1-0.6,0.1-1,0.1h-1c-0.3-0.4-0.5-1.1-0.5-2.3v-3h3.1v-0.8h-3.1v-2h-0.9v2
		h-1.7v0.8h1.7v3c0,0.9,0.1,1.5,0.3,2c0.1,0.3,0.3,0.5,0.4,0.6c0.4,0.3,1,0.5,1.9,0.5c0.9,0,1.5-0.2,1.9-0.5l-0.3-0.7
		C217.3,68,217.1,68.1,216.9,68.1z"/>
	<path id="XMLID_8_" class="st0" d="M221.1,59.4c-0.5,0-0.7,0.2-0.7,0.7c0,0.5,0.2,0.7,0.7,0.7c0.5,0,0.7-0.2,0.7-0.7
		C221.9,59.6,221.7,59.4,221.1,59.4z"/>
	<rect id="XMLID_7_" x="220.7" y="62.2" class="st0" width="1" height="6.8"/>
	<path id="XMLID_6_" class="st0" d="M230.4,62.1H228l-1.7,1.3h-0.1l-0.1-1.2h-0.8V69h1v-4.8l1.9-1.2h3.2c0.2,0.1,0.4,0.5,0.4,0.8V69
		h0.9v-5.3C232.6,62.5,232,62.1,230.4,62.1z"/>
	<path id="XMLID_5_" class="st0" d="M242.6,66.8l-2.2,1.4h-2.3c-0.8-0.4-1.3-1.4-1.3-2.6c0-1.3,0.4-2.3,1.2-2.7h2.6l2,1.2V66.8z"/>
	<path id="XMLID_4_" class="st0" d="M242.7,63.4L242.7,63.4l-2-1.3h-0.9c-1.3,0-2.1,0.1-2.8,0.6c-0.8,0.5-1.1,1.5-1.1,3
		c0,1.2,0.3,2.1,0.9,2.6c0.6,0.5,1.6,0.8,3.1,0.8h0.7l2.2-1.4V69c0,0.9-0.4,1.8-1,2.2h-2.2c-1.2,0-2.1-0.3-2.5-1l-0.7,0.5
		c0.4,0.9,1.4,1.3,3.4,1.3c1.5,0,2.6-0.2,3.1-0.7c0.6-0.4,0.8-1.2,0.8-2.3v-6.8h-0.8L242.7,63.4z"/>
</g>
</svg>
