<svg width="286" height="301" viewBox="0 0 286 301" fill="none" xmlns="http://www.w3.org/2000/svg">
<path d="M59.6869 245.891V240.256H54.0462V130.927H59.6869V125.287H225.65V130.927H231.291V240.256H225.65V245.891H59.6869ZM58.0202 247.558V251.532H48.4056V241.922H58.0202V247.558ZM48.4056 125.287V119.646H58.0202V129.261H48.4056V125.287ZM227.317 123.62V119.646H236.932V129.261H227.317V123.62ZM236.932 247.558V251.532H227.317V241.922H236.932V247.558ZM238.598 245.891V240.256H232.958V130.927H238.598V125.287H282.989V123.62H238.598V117.979H232.958V70.2295H231.291V117.979H225.65V123.62H59.6869V117.979H54.0462V70.2295H52.3796V117.979H46.7389V123.62H0.775391V125.287H46.7389V130.927H52.3796V240.256H46.7389V245.891H0.775391V247.558H46.7389V253.203H52.3796V300.823H54.0462V253.203H59.6869V247.558H225.65V253.203H231.291V300.823H232.958V253.203H238.598V247.558H285.025V245.891H238.598ZM62.4681 32.5889C60.1764 32.5889 58.2702 32.0055 56.8327 30.8441C55.3952 29.6357 54.6139 28.0837 54.541 26.0993L51.8587 26.5264C52.0514 29.1305 53.0619 31.2295 54.9681 32.8232C56.8691 34.417 59.3171 35.193 62.2337 35.193C65.2285 35.193 67.6764 34.4951 69.5046 33.0941C71.3275 31.6566 72.2598 29.8337 72.2598 27.5368C72.2598 24.0003 69.9681 21.516 65.7702 20.542L59.6296 19.1045C56.8691 18.443 55.5098 17.0055 55.5098 14.7139C55.5098 11.8753 58.0775 9.96908 61.9629 9.96908C65.5775 9.96908 68.416 12.0316 69.0775 15.0993L71.7181 14.2451C71.2546 12.1878 70.1244 10.5524 68.3744 9.30762C66.6296 8.02637 64.5671 7.40658 62.1973 7.40658C59.2806 7.40658 56.9473 8.06803 55.1608 9.42741C53.4108 10.7451 52.5202 12.4951 52.5202 14.7139C52.5202 18.4066 54.6921 21.0107 58.5827 21.8232L64.7598 23.2243C67.6764 23.8441 69.2702 25.4014 69.2702 27.5368C69.2702 30.5316 66.5514 32.5889 62.4681 32.5889ZM79.8796 30.5316C79.8796 33.1357 81.5098 34.766 84.1139 34.766H88.2754V32.2816H84.2702C83.1869 32.2816 82.4837 31.6566 82.4837 30.6097V18.2503H88.2754V15.9587H82.4837V9.96908H79.8796V15.9587H75.3327V18.2503H79.8796V30.5316ZM100.598 35.193C103.437 35.193 105.958 33.641 106.775 31.3441H106.817L107.322 34.766H109.458V15.9535H106.817V25.943C106.817 30.0264 104.52 32.7868 101.062 32.7868C98.0723 32.7868 96.0514 30.417 96.0514 26.8753V15.9535H93.4056V27.7712C93.4056 29.9847 94.0671 31.8128 95.39 33.1722C96.7129 34.5368 98.4577 35.193 100.598 35.193ZM124.229 17.9378C127.921 17.9378 130.369 20.891 130.369 25.3597C130.369 29.8285 127.921 32.8232 124.229 32.8232C120.499 32.8232 118.046 29.8285 118.046 25.3597C118.046 20.891 120.499 17.9378 124.229 17.9378ZM123.916 35.193C126.755 35.193 129.359 33.641 130.333 31.3441H130.369L130.838 34.766H132.973V6.62533H130.369V19.3753H130.333C129.359 17.0837 126.833 15.568 123.916 15.568C121.354 15.568 119.291 16.4587 117.697 18.2868C116.104 20.0732 115.327 22.4482 115.327 25.3597C115.327 28.2764 116.104 30.6462 117.697 32.4743C119.291 34.3024 121.354 35.193 123.916 35.193ZM144.786 36.4743C144.786 38.4587 143.348 39.7399 141.171 39.7399H138.723V42.2295H141.249C144.322 42.2295 146.187 40.9482 147.275 38.1097L148.557 34.9587L156.02 15.9535H153.109L146.65 33.3285L140.202 15.9535H137.249L144.244 33.9899C144.593 34.8076 144.786 35.6201 144.786 36.4743ZM185.64 32.0837H172.036V7.79199H169.197V34.766H185.64V32.0837ZM203.244 26.917C203.244 30.6097 200.676 33.0576 196.833 33.0576C194.229 33.0576 192.52 31.7347 192.52 29.7555C192.52 28.0837 193.994 26.7607 196.208 26.4482L203.244 25.3597V26.917ZM201.765 23.6514L195.432 24.6618C192.051 25.167 189.874 27.1878 189.874 29.8285C189.874 33.0941 192.437 35.193 196.442 35.193C199.51 35.193 201.765 34.1045 203.244 31.9274C203.359 33.641 204.525 34.766 206.354 34.766H207.791V32.3597H206.973C206.239 32.3597 205.885 31.9691 205.885 31.2295V22.0576C205.885 18.1305 203.051 15.568 198.541 15.568C194.343 15.568 191.27 17.8597 190.692 21.4743L193.02 21.9795C193.333 19.5316 195.588 17.7816 198.541 17.7816C201.301 17.7816 203.244 19.4899 203.244 21.9378C203.244 22.9118 202.739 23.4587 201.765 23.6514ZM221.473 17.9378C225.202 17.9378 227.729 20.891 227.729 25.3597C227.729 27.5785 227.15 29.4014 225.984 30.766C224.854 32.1253 223.338 32.8232 221.473 32.8232C217.781 32.8232 215.369 29.8285 215.369 25.3597C215.369 20.891 217.781 17.9378 221.473 17.9378ZM215.369 31.3441H215.411C216.38 33.641 218.947 35.193 221.786 35.193C224.39 35.193 226.447 34.3024 228.041 32.516C229.635 30.6878 230.411 28.3128 230.411 25.3597C230.411 22.4482 229.635 20.0732 228.041 18.2868C226.447 16.4587 224.39 15.568 221.786 15.568C218.947 15.568 216.38 17.0837 215.411 19.3753H215.369V6.62533H212.765V34.766H214.906L215.369 31.3441ZM236.088 14.818H238.458V8.94824H244.093V6.61491H238.458V0.823242H236.088V6.61491H230.411V8.94824H236.088V14.818Z" fill="#0F0F0F"/>
</svg>
